<svg width="21" height="21" viewBox="0 0 21 21" fill="none" xmlns="http://www.w3.org/2000/svg">
<g clip-path="url(#clip0_316_742)">
<path d="M3.93555 1.40625C3.30273 1.65234 2.76758 1.98047 2.23242 2.51562C1.69727 3.04687 1.36914 3.58594 1.12305 4.21484C0.884766 4.82422 0.724609 5.52344 0.677734 6.54687C0.630859 7.57031 0.619141 7.89844 0.619141 10.5078C0.619141 13.1172 0.630859 13.4453 0.677734 14.4687C0.724609 15.4922 0.888672 16.1914 1.12305 16.8008C1.36914 17.4336 1.69727 17.9687 2.23242 18.5039C2.76758 19.0391 3.30273 19.3672 3.93555 19.6133C4.54492 19.8516 5.24414 20.0117 6.26758 20.0586C7.29102 20.1055 7.61914 20.1172 10.2285 20.1172C12.8379 20.1172 13.166 20.1055 14.1895 20.0586C15.2129 20.0117 15.9121 19.8477 16.5215 19.6133C17.1543 19.3672 17.6895 19.0391 18.2246 18.5039C18.7598 17.9687 19.0879 17.4336 19.334 16.8008C19.5723 16.1914 19.7324 15.4922 19.7793 14.4687C19.8262 13.4453 19.8379 13.1172 19.8379 10.5078C19.8379 7.89844 19.8262 7.57031 19.7793 6.54687C19.7324 5.52344 19.5684 4.82422 19.334 4.21484C19.0879 3.58594 18.7598 3.04687 18.2285 2.51562C17.6934 1.98047 17.1582 1.65234 16.5254 1.40625C15.916 1.16797 15.2168 1.00781 14.1934 0.960937C13.1699 0.914062 12.8418 0.902344 10.2324 0.902344C7.62305 0.902344 7.29492 0.914062 6.27148 0.960937C5.24414 1.00391 4.54492 1.16797 3.93555 1.40625ZM14.1113 2.6875C15.0488 2.73047 15.5566 2.88672 15.8965 3.01953C16.3457 3.19531 16.666 3.40234 17.002 3.73828C17.3379 4.07422 17.5449 4.39453 17.7207 4.84375C17.8535 5.18359 18.0098 5.6914 18.0527 6.6289C18.0996 7.64062 18.1074 7.94531 18.1074 10.5117C18.1074 13.0781 18.0957 13.3828 18.0527 14.3945C18.0098 15.332 17.8535 15.8398 17.7207 16.1797C17.5449 16.6289 17.3379 16.9492 17.002 17.2852C16.666 17.6211 16.3457 17.8281 15.8965 18.0039C15.5566 18.1367 15.0488 18.293 14.1113 18.3359C13.0996 18.3828 12.7949 18.3906 10.2285 18.3906C7.66211 18.3906 7.35742 18.3789 6.3457 18.3359C5.4082 18.293 4.90039 18.1367 4.56055 18.0039C4.11133 17.8281 3.79102 17.6211 3.45508 17.2852C3.11914 16.9492 2.91211 16.6289 2.73633 16.1797C2.60352 15.8398 2.44727 15.332 2.4043 14.3945C2.35742 13.3828 2.34961 13.0781 2.34961 10.5117C2.34961 7.94531 2.36133 7.64062 2.4043 6.6289C2.44727 5.6914 2.60352 5.18359 2.73633 4.84375C2.91211 4.39453 3.11914 4.07422 3.45508 3.73828C3.79102 3.40234 4.11133 3.19531 4.56055 3.01953C4.90039 2.88672 5.4082 2.73047 6.3457 2.6875C7.35742 2.64062 7.66211 2.63281 10.2285 2.63281C12.7949 2.63281 13.0996 2.64062 14.1113 2.6875Z" fill="url(#paint0_radial_316_742)"/>
<path d="M5.29492 10.5117C5.29492 13.2383 7.50586 15.4453 10.2285 15.4453C12.9512 15.4453 15.1621 13.2344 15.1621 10.5117C15.1621 7.78906 12.9551 5.57812 10.2285 5.57812C7.50195 5.57812 5.29492 7.78516 5.29492 10.5117ZM13.4316 10.5117C13.4316 12.2813 11.9981 13.7148 10.2285 13.7148C8.45899 13.7148 7.02539 12.2813 7.02539 10.5117C7.02539 8.74219 8.45899 7.30859 10.2285 7.30859C11.9981 7.30859 13.4316 8.74219 13.4316 10.5117Z" fill="url(#paint1_radial_316_742)"/>
<path d="M15.3613 6.53516C15.9978 6.53516 16.5137 6.01923 16.5137 5.38281C16.5137 4.74639 15.9978 4.23047 15.3613 4.23047C14.7249 4.23047 14.209 4.74639 14.209 5.38281C14.209 6.01923 14.7249 6.53516 15.3613 6.53516Z" fill="#654C9F"/>
</g>
<defs>
<radialGradient id="paint0_radial_316_742" cx="0" cy="0" r="1" gradientUnits="userSpaceOnUse" gradientTransform="translate(0.968827 18.358) rotate(-3.00009) scale(27.7857 23.6176)">
<stop stop-color="#FED576"/>
<stop offset="0.2634" stop-color="#F47133"/>
<stop offset="0.6091" stop-color="#BC3081"/>
<stop offset="1" stop-color="#4C63D2"/>
</radialGradient>
<radialGradient id="paint1_radial_316_742" cx="0" cy="0" r="1" gradientUnits="userSpaceOnUse" gradientTransform="translate(5.47388 14.5405) rotate(-3.00009) scale(14.2683 12.1279)">
<stop stop-color="#FED576"/>
<stop offset="0.2634" stop-color="#F47133"/>
<stop offset="0.6091" stop-color="#BC3081"/>
<stop offset="1" stop-color="#4C63D2"/>
</radialGradient>
<clipPath id="clip0_316_742">
<rect width="20" height="20" fill="white" transform="translate(0.181641 0.5)"/>
</clipPath>
</defs>
</svg>

