<svg xmlns="http://www.w3.org/2000/svg" width="20" height="21" viewBox="0 0 20 21" fill="none">
  <path d="M15.8333 15.5H7.5C7.05797 15.5 6.63405 15.3244 6.32149 15.0118C6.00893 14.6993 5.83333 14.2753 5.83333 13.8333V3.83332C5.83333 3.3913 6.00893 2.96737 6.32149 2.65481C6.63405 2.34225 7.05797 2.16666 7.5 2.16666H8.33333V6.33332L10 5.08332L11.6667 6.33332V2.16666H15.8333C16.2754 2.16666 16.6993 2.34225 17.0118 2.65481C17.3244 2.96737 17.5 3.3913 17.5 3.83332V13.8333C17.5 14.2753 17.3244 14.6993 17.0118 15.0118C16.6993 15.3244 16.2754 15.5 15.8333 15.5ZM14.1667 17.1667V18.8333H4.16667C3.72464 18.8333 3.30072 18.6577 2.98816 18.3452C2.67559 18.0326 2.5 17.6087 2.5 17.1667V5.49999H4.16667V17.1667H14.1667Z" fill="#020617"/>
</svg>