<svg xmlns="http://www.w3.org/2000/svg" width="20" height="21" viewBox="0 0 20 21" fill="none">
  <g clip-path="url(#clip0_877_1905)">
    <path fill-rule="evenodd" clip-rule="evenodd" d="M10.0001 3.83334C10.7126 3.83334 11.4434 3.85168 12.1517 3.88168L12.9884 3.92168L13.7892 3.96918L14.5392 4.02001L15.2242 4.07334C15.9676 4.13024 16.6671 4.44747 17.1997 4.96921C17.7323 5.49095 18.0638 6.18379 18.1359 6.92584L18.1692 7.28001L18.2317 8.03834C18.2901 8.82418 18.3334 9.68084 18.3334 10.5C18.3334 11.3192 18.2901 12.1758 18.2317 12.9617L18.1692 13.72C18.1584 13.8417 18.1476 13.9592 18.1359 14.0742C18.0637 14.8164 17.7321 15.5093 17.1994 16.0311C16.6666 16.5528 15.9669 16.87 15.2234 16.9267L14.5401 16.9792L13.7901 17.0308L12.9884 17.0783L12.1517 17.1183C11.4349 17.1495 10.7176 17.1656 10.0001 17.1667C9.2826 17.1656 8.56522 17.1495 7.84841 17.1183L7.01175 17.0783L6.21091 17.0308L5.46091 16.9792L4.77591 16.9267C4.03254 16.8698 3.33304 16.5526 2.80048 16.0308C2.26791 15.5091 1.93639 14.8162 1.86425 14.0742L1.83091 13.72L1.76841 12.9617C1.7047 12.1426 1.67078 11.3215 1.66675 10.5C1.66675 9.68084 1.71008 8.82418 1.76841 8.03834L1.83091 7.28001C1.84175 7.15834 1.85258 7.04084 1.86425 6.92584C1.93637 6.18392 2.26776 5.49119 2.80016 4.96946C3.33255 4.44774 4.03185 4.13043 4.77508 4.07334L5.45925 4.02001L6.20925 3.96918L7.01091 3.92168L7.84758 3.88168C8.56466 3.85054 9.28232 3.83442 10.0001 3.83334ZM8.33341 8.47918V12.5208C8.33341 12.9058 8.75008 13.1458 9.08341 12.9542L12.5834 10.9333C12.6596 10.8895 12.7228 10.8264 12.7668 10.7503C12.8108 10.6742 12.834 10.5879 12.834 10.5C12.834 10.4121 12.8108 10.3258 12.7668 10.2497C12.7228 10.1737 12.6596 10.1105 12.5834 10.0667L9.08341 8.04668C9.00738 8.00278 8.92113 7.97968 8.83333 7.97969C8.74554 7.9797 8.65929 8.00283 8.58327 8.04676C8.50726 8.09068 8.44414 8.15384 8.40028 8.2299C8.35642 8.30595 8.33336 8.39221 8.33341 8.48001V8.47918Z" fill="#FF0000"/>
  </g>
  <defs>
    <clipPath id="clip0_877_1905">
      <rect width="20" height="20" fill="white" transform="translate(0 0.5)"/>
    </clipPath>
  </defs>
</svg>