<svg width="28" height="21" viewBox="0 0 28 21" fill="none" xmlns="http://www.w3.org/2000/svg">
<g clip-path="url(#clip0_316_737)">
<path d="M26.6344 3.68189C26.3196 2.45826 25.4116 1.50008 24.2476 1.1728C22.6841 0.538257 7.54003 0.227348 3.14695 1.19098C1.98296 1.52189 1.07148 2.47644 0.760163 3.70008C0.0545032 6.95462 0.000886843 13.991 0.777459 17.3183C1.09224 18.5419 2.00026 19.5001 3.16425 19.8274C6.26016 20.5764 20.9787 20.6819 24.2649 19.8274C25.4289 19.4964 26.3403 18.5419 26.6517 17.3183C27.404 13.7728 27.4576 7.1728 26.6344 3.68189Z" fill="#FF0000"/>
<path d="M18.1601 10.4999L11.1035 6.24536V14.7545L18.1601 10.4999Z" fill="white"/>
</g>
<defs>
<clipPath id="clip0_316_737">
<rect width="27.5" height="20" fill="white" transform="translate(0 0.5)"/>
</clipPath>
</defs>
</svg>

